<?xml version="1.0" encoding="utf-8"?>
<!-- Generator: Adobe Illustrator 27.9.0, SVG Export Plug-In . SVG Version: 6.00 Build 0)  -->
<svg version="1.1" id="圖層_1" xmlns="http://www.w3.org/2000/svg" xmlns:xlink="http://www.w3.org/1999/xlink" x="0px" y="0px"
	 viewBox="0 0 141.7 141.7" style="enable-background:new 0 0 141.7 141.7;" xml:space="preserve">
<style type="text/css">
	.st0{display:none;}
	.st1{display:inline;}
	.st2{fill:none;stroke:#FFFFFF;stroke-width:4.8249;stroke-linecap:round;stroke-linejoin:round;}
	.st3{fill-rule:evenodd;clip-rule:evenodd;fill:#FFFFFF;}
	.st4{display:inline;fill:#FFFFFF;}
	.st5{fill:#FFFFFF;}
</style>
<g id="圖層_1_00000106128457472743666670000010650244161594284447_" class="st0">
	<g class="st1">
		<g>
			<path class="st2" d="M69.5,101.9l12,2.8c0,0,2.1,0.7,2.1-1.9c0,0,0,1.1,0-0.2c0-3.1,0.6-4.6,6.3-10.7l0,0
				c7-5.5,11-13.9,10.9-22.8c0-16.6-13.4-30-30-30s-30,13.4-30,30c-0.1,8.9,3.9,17.3,10.9,22.8l0,0c5.7,6.2,6.2,7.6,6.3,10.7
				c0,1.3,0,1.5,0,1.5c0,1.6-0.3,2.9,1.4,3.5l23.1,5.1"/>
			<line class="st2" x1="59.3" y1="115.2" x2="82.2" y2="120.4"/>
			<line class="st2" x1="60.8" y1="123.4" x2="79.3" y2="127.6"/>
			<line class="st2" x1="70.9" y1="14.2" x2="70.9" y2="22.9"/>
			<line class="st2" x1="43.3" y1="21.5" x2="47.7" y2="29.1"/>
			<line class="st2" x1="23.2" y1="41.7" x2="30.8" y2="46.1"/>
			<line class="st2" x1="111" y1="46.1" x2="118.5" y2="41.7"/>
			<line class="st2" x1="94" y1="29.1" x2="98.4" y2="21.5"/>
		</g>
	</g>
</g>
<g id="圖層_2_00000135655785247414511890000013896887195670968964_" class="st0">
	<g class="st1">
		<g transform="translate(-380.000000, -284.000000)">
			<g transform="translate(382.000000, 284.000000)">
				<path class="st3" d="M113.7,26v99.2c0,1.3-1,2.4-2.3,2.4H26.3c-1.3,0-2.3-1-2.3-2.4V26c0-1.3,1.1-2.4,2.4-2.4h35.4v4.7H28.7
					v94.5H109V28.3H76v-4.7h35.4C112.7,23.6,113.7,24.7,113.7,26z"/>
				<path class="st3" d="M76,33.1v-7c0-4-3.2-7.1-7.1-7.1s-7.1,3.2-7.1,7.1v7H76z M52.3,33.1H57v-7c0-6.5,5.2-11.9,11.8-11.9
					c6.5,0,11.8,5.3,11.8,11.9v7h4.7v4.7h-33C52.3,37.8,52.3,33.1,52.3,33.1z"/>
				<circle class="st3" cx="68.9" cy="26" r="2.4"/>
				<rect x="42.9" y="56.7" class="st3" width="52" height="4.7"/>
				<rect x="42.9" y="75.6" class="st3" width="52" height="4.7"/>
				<rect x="42.9" y="94.5" class="st3" width="37.8" height="4.7"/>
			</g>
		</g>
	</g>
</g>
<g id="圖層_4" class="st0">
	<path class="st4" d="M14.2,70.9c0-15,6-29.5,16.6-40.1s25.1-16.6,40.1-16.6s29.5,6,40.1,16.6s16.6,25.1,16.6,40.1
		s-6,29.5-16.6,40.1s-25.1,16.6-40.1,16.6s-29.5-6-40.1-16.6C20.1,100.3,14.2,85.9,14.2,70.9L14.2,70.9z M21.3,70.9
		c0,13.2,5.2,25.8,14.5,35.1s21.9,14.5,35.1,14.5s25.8-5.2,35.1-14.5s14.5-21.9,14.5-35.1s-5.2-25.8-14.5-35.1S84,21.3,70.9,21.3
		s-25.7,5.3-35,14.6S21.3,57.7,21.3,70.9L21.3,70.9z M73.1,92.4c-0.7-0.7-1-1.6-1-2.5s0.4-1.8,1-2.5l13-13H46
		c-1.3,0-2.4-0.7-3.1-1.8c-0.6-1.1-0.6-2.4,0-3.5s1.8-1.8,3.1-1.8h39.9L73.1,54.5c-0.9-0.9-1.2-2.2-0.9-3.4c0.3-1.2,1.3-2.2,2.5-2.5
		s2.5,0,3.4,0.9L99,71L78.1,92.4c-0.7,0.7-1.6,1-2.5,1C74.7,93.5,73.8,93.1,73.1,92.4L73.1,92.4z"/>
</g>
<path class="st5" d="M107.7,21.2c-1.3-0.6-2.9-0.4-4,0.6l-6.4,5.6l-6.4-5.6c-1.4-1.2-3.5-1.2-4.9,0l-6.4,5.6l-6.3-5.6
	c-1.4-1.3-3.5-1.3-4.9,0L62,27.4l-6.3-5.6c-1.4-1.3-3.5-1.3-4.9,0l-6.3,5.6L38,21.8c-1.1-1-2.7-1.2-4-0.6c-1.3,0.6-2.2,1.9-2.2,3.4
	v92.6c0,1.5,0.9,2.8,2.2,3.4c1.3,0.6,2.9,0.4,4-0.6l6.4-5.6l6.4,5.6c1.4,1.2,3.5,1.2,4.9,0l6.4-5.6l6.3,5.6c1.4,1.3,3.5,1.3,4.9,0
	l6.3-5.6l6.3,5.6c1.4,1.3,3.5,1.3,4.9,0l6.3-5.6l6.3,5.6c0.7,0.6,1.6,0.9,2.5,0.9c0.5,0,1-0.1,1.5-0.3c1.3-0.6,2.2-1.9,2.2-3.4V24.6
	C109.8,23.1,109,21.8,107.7,21.2z M67.1,39.6v-0.2c0-2,1.7-3.7,3.7-3.7s3.7,1.7,3.7,3.7h1.9c2.1,0,3.7,1.7,3.7,3.7s-1.7,3.7-3.7,3.7
	h-7.5c-1,0-1.8,0.8-1.8,1.8c0,1.1,0.8,1.9,1.8,1.9h3.8c5.1,0,9.2,4.1,9.2,9.2c0,4.6-3.2,8.3-7.4,9.1V69c0,2-1.7,3.7-3.7,3.7
	S67.1,71,67.1,69h-1.9c-2.1,0-3.7-1.7-3.7-3.7s1.7-3.7,3.7-3.7h7.5c1,0,1.8-0.8,1.8-1.8c0-1.1-0.8-1.9-1.8-1.9h-3.8
	c-5.1,0-9.2-4.1-9.2-9.2C59.7,44.1,62.9,40.4,67.1,39.6z M89.4,106H52.3c-2.1,0-3.7-1.7-3.7-3.7s1.7-3.7,3.7-3.7h37.1
	c2.1,0,3.7,1.7,3.7,3.7S91.5,106,89.4,106z M89.4,89.4H52.3c-2.1,0-3.7-1.7-3.7-3.7s1.7-3.7,3.7-3.7h37.1c2.1,0,3.7,1.7,3.7,3.7
	S91.5,89.4,89.4,89.4z"/>
</svg>
