<?xml version="1.0" encoding="utf-8"?>
<!-- Generator: Adobe Illustrator 27.9.0, SVG Export Plug-In . SVG Version: 6.00 Build 0)  -->
<svg version="1.1" xmlns="http://www.w3.org/2000/svg" xmlns:xlink="http://www.w3.org/1999/xlink" x="0px" y="0px"
	 viewBox="0 0 141.7 141.7" style="enable-background:new 0 0 141.7 141.7;" xml:space="preserve">
<style type="text/css">
	.st0{fill:none;stroke:#FFFFFF;stroke-width:4.8249;stroke-linecap:round;stroke-linejoin:round;}
	.st1{display:none;}
	.st2{display:inline;}
	.st3{fill-rule:evenodd;clip-rule:evenodd;fill:#FFFFFF;}
	.st4{fill:#FFFFFF;}
	.st5{display:inline;fill:#FFFFFF;}
</style>
<g id="圖層_1">
	<g>
		<g>
			<path class="st0" d="M69.5,101.9l12,2.8c0,0,2.1,0.7,2.1-1.9c0,0,0,1.1,0-0.2c0-3.1,0.6-4.6,6.3-10.7l0,0
				c7-5.5,11-13.9,10.9-22.8c0-16.6-13.4-30-30-30s-30,13.4-30,30c-0.1,8.9,3.9,17.3,10.9,22.8l0,0c5.7,6.2,6.2,7.6,6.3,10.7
				c0,1.3,0,1.5,0,1.5c0,1.6-0.3,2.9,1.4,3.5l23.1,5.1"/>
			<line class="st0" x1="59.3" y1="115.2" x2="82.2" y2="120.4"/>
			<line class="st0" x1="60.8" y1="123.4" x2="79.3" y2="127.6"/>
			<line class="st0" x1="70.9" y1="14.2" x2="70.9" y2="22.9"/>
			<line class="st0" x1="43.3" y1="21.5" x2="47.7" y2="29.1"/>
			<line class="st0" x1="23.2" y1="41.7" x2="30.8" y2="46.1"/>
			<line class="st0" x1="111" y1="46.1" x2="118.5" y2="41.7"/>
			<line class="st0" x1="94" y1="29.1" x2="98.4" y2="21.5"/>
		</g>
	</g>
</g>
<g id="圖層_2" class="st1">
	<g class="st2">
		<g transform="translate(-380.000000, -284.000000)">
			<g transform="translate(382.000000, 284.000000)">
				<path class="st3" d="M113.7,26v99.2c0,1.3-1,2.4-2.3,2.4H26.3c-1.3,0-2.3-1-2.3-2.4V26c0-1.3,1.1-2.4,2.4-2.4h35.4v4.7H28.7
					v94.5H109V28.3H76v-4.7h35.4C112.7,23.6,113.7,24.7,113.7,26z"/>
				<path class="st3" d="M76,33.1v-7c0-4-3.2-7.1-7.1-7.1c-3.9,0-7.1,3.2-7.1,7.1v7H76z M52.3,33.1h4.7v-7c0-6.5,5.2-11.9,11.8-11.9
					c6.5,0,11.8,5.3,11.8,11.9v7h4.7v4.7H52.3V33.1z"/>
				<circle class="st3" cx="68.9" cy="26" r="2.4"/>
				<rect x="42.9" y="56.7" class="st3" width="52" height="4.7"/>
				<rect x="42.9" y="75.6" class="st3" width="52" height="4.7"/>
				<rect x="42.9" y="94.5" class="st3" width="37.8" height="4.7"/>
			</g>
		</g>
	</g>
</g>
<g id="圖層_3" class="st1">
	<g class="st2">
		<path class="st4" d="M87,35c-6-7.9-15.2-12.4-25.1-12.4c-7,0-13.6,2.2-19.2,6.5c-6.7,5.1-11,12.5-12.1,20.9
			c-1.1,8.4,1.1,16.6,6.2,23.3c6,7.9,15.2,12.4,25.1,12.4c7,0,13.6-2.2,19.2-6.5c6.7-5.1,11-12.5,12.1-20.9C94.3,50,92.1,41.7,87,35
			z M89.8,57.9c-1,7.4-4.8,14.1-10.8,18.6c-4.9,3.8-10.9,5.8-17.1,5.8c-8.8,0-17-4-22.3-11c-4.6-6-6.5-13.3-5.6-20.8
			s4.8-14.1,10.8-18.6c4.9-3.8,10.9-5.8,17.1-5.8c8.8,0,17,4,22.3,11C88.8,43,90.8,50.4,89.8,57.9z"/>
		<path class="st4" d="M118.4,116.4l-27-35.2c12.9-14,14.3-35.7,2.3-51.4c-7.6-10-19.2-15.7-31.8-15.7c-8.9,0-17.3,2.9-24.3,8.2
			c-8.5,6.5-13.9,15.9-15.3,26.5c-1.4,10.6,1.4,21.1,7.9,29.6c7.6,10,19.2,15.7,31.8,15.7c6.5,0,12.8-1.6,18.4-4.5l27,35.2
			c1.4,1.8,3.4,2.7,5.5,2.7c1.5,0,3-0.5,4.2-1.4C120.1,123.8,120.7,119.4,118.4,116.4z M111.7,113.3l-5.6,4.3l-18-23.4l5.6-4.3
			L111.7,113.3z M32.9,76.4c-5.9-7.7-8.5-17.3-7.2-27c1.3-9.7,6.3-18.3,14-24.2c6.4-4.9,14.1-7.5,22.2-7.5c11.5,0,22.1,5.2,29,14.3
			c12.3,16,9.2,39-6.8,51.2c-6.4,4.9-14.1,7.5-22.2,7.5C50.5,90.7,39.9,85.5,32.9,76.4z M86.3,85.9c0.9-0.7,1.8-1.5,2.7-2.3l2.7,3.5
			l-5.6,4.3l-2.7-3.5C84.4,87.3,85.3,86.6,86.3,85.9z M115,123.4c-1.5,1.2-3.7,0.9-4.9-0.7l-1.9-2.4l5.6-4.3l1.9,2.4
			C116.8,120,116.5,122.2,115,123.4z"/>
		
			<rect x="51.9" y="49.6" transform="matrix(0.7938 -0.6082 0.6082 0.7938 -24.1712 44.5498)" class="st4" width="3.4" height="16.6"/>
		
			<rect x="66" y="38.8" transform="matrix(0.7938 -0.6082 0.6082 0.7938 -14.6813 50.9046)" class="st4" width="3.4" height="16.6"/>
		
			<rect x="59.6" y="38.2" transform="matrix(0.7938 -0.6082 0.6082 0.7938 -19.8815 48.2909)" class="st4" width="3.4" height="30.6"/>
	</g>
</g>
<g id="圖層_4" class="st1">
	<path class="st5" d="M14.2,70.9c0-15,6-29.5,16.6-40.1c10.6-10.6,25.1-16.6,40.1-16.6s29.5,6,40.1,16.6
		c10.6,10.6,16.6,25.1,16.6,40.1s-6,29.5-16.6,40.1c-10.6,10.6-25.1,16.6-40.1,16.6s-29.5-6-40.1-16.6
		C20.1,100.3,14.2,85.9,14.2,70.9L14.2,70.9z M21.3,70.9c0,13.2,5.2,25.8,14.5,35.1s21.9,14.5,35.1,14.5s25.8-5.2,35.1-14.5
		s14.5-21.9,14.5-35.1s-5.2-25.8-14.5-35.1S84,21.3,70.9,21.3c-13.1,0-25.7,5.3-35,14.6S21.3,57.7,21.3,70.9L21.3,70.9z M73.1,92.4
		c-0.7-0.7-1-1.6-1-2.5c0-0.9,0.4-1.8,1-2.5l13-13H46c-1.3,0-2.4-0.7-3.1-1.8c-0.6-1.1-0.6-2.4,0-3.5c0.6-1.1,1.8-1.8,3.1-1.8h39.9
		L73.1,54.5c-0.9-0.9-1.2-2.2-0.9-3.4c0.3-1.2,1.3-2.2,2.5-2.5c1.2-0.3,2.5,0,3.4,0.9l20.9,21.5L78.1,92.4c-0.7,0.7-1.6,1-2.5,1
		C74.7,93.5,73.8,93.1,73.1,92.4L73.1,92.4z"/>
</g>
</svg>
